<mxfile host="app.diagrams.net" agent="Mozilla/5.0 (Windows NT 10.0; Win64; x64) AppleWebKit/537.36 (KHTML, like Gecko) Chrome/127.0.0.0 Safari/537.36" version="24.7.7">
  <diagram name="Page-1" id="8CI6s-3blOcTyeabZUMh">
    <mxGraphModel dx="1134" dy="637" grid="1" gridSize="10" guides="1" tooltips="1" connect="1" arrows="1" fold="1" page="1" pageScale="1" pageWidth="850" pageHeight="1100" math="0" shadow="0">
      <root>
        <mxCell id="0" />
        <mxCell id="1" parent="0" />
        <mxCell id="9LHKJstA_5zomm5PVRbd-1" value="Nama : Zulpa Agustin&lt;div style=&quot;font-size: 15px;&quot;&gt;Kota&amp;nbsp; &amp;nbsp;: Tasikmalaya&lt;/div&gt;&lt;div style=&quot;font-size: 15px;&quot;&gt;SMK Negeri 4 Tasikmalaya&lt;/div&gt;" style="rounded=0;whiteSpace=wrap;html=1;align=left;verticalAlign=top;fontStyle=1;fontSize=15;" vertex="1" parent="1">
          <mxGeometry x="40" y="20" width="730" height="660" as="geometry" />
        </mxCell>
        <mxCell id="9LHKJstA_5zomm5PVRbd-4" value="" style="edgeStyle=orthogonalEdgeStyle;rounded=0;orthogonalLoop=1;jettySize=auto;html=1;" edge="1" parent="1" source="9LHKJstA_5zomm5PVRbd-2" target="9LHKJstA_5zomm5PVRbd-3">
          <mxGeometry relative="1" as="geometry" />
        </mxCell>
        <mxCell id="9LHKJstA_5zomm5PVRbd-2" value="1982" style="ellipse;whiteSpace=wrap;html=1;aspect=fixed;" vertex="1" parent="1">
          <mxGeometry x="220" y="140" width="80" height="80" as="geometry" />
        </mxCell>
        <mxCell id="9LHKJstA_5zomm5PVRbd-3" value="Terjadinya bencana letusan Gunung Galunggung yang menyebabkan abu vulkanik menyebar luas" style="whiteSpace=wrap;html=1;" vertex="1" parent="1">
          <mxGeometry x="400" y="140" width="160" height="80" as="geometry" />
        </mxCell>
        <mxCell id="9LHKJstA_5zomm5PVRbd-7" value="" style="edgeStyle=orthogonalEdgeStyle;rounded=0;orthogonalLoop=1;jettySize=auto;html=1;" edge="1" parent="1" source="9LHKJstA_5zomm5PVRbd-5" target="9LHKJstA_5zomm5PVRbd-6">
          <mxGeometry relative="1" as="geometry" />
        </mxCell>
        <mxCell id="9LHKJstA_5zomm5PVRbd-5" value="2009" style="ellipse;whiteSpace=wrap;html=1;aspect=fixed;" vertex="1" parent="1">
          <mxGeometry x="220" y="255" width="80" height="80" as="geometry" />
        </mxCell>
        <mxCell id="9LHKJstA_5zomm5PVRbd-6" value="Terjadinya Gempa Bumi berkekuatan 7,3 skala Richter mengguncang Jawa Barat" style="whiteSpace=wrap;html=1;" vertex="1" parent="1">
          <mxGeometry x="400" y="260" width="160" height="70" as="geometry" />
        </mxCell>
        <mxCell id="9LHKJstA_5zomm5PVRbd-10" value="" style="edgeStyle=orthogonalEdgeStyle;rounded=0;orthogonalLoop=1;jettySize=auto;html=1;" edge="1" parent="1" source="9LHKJstA_5zomm5PVRbd-8" target="9LHKJstA_5zomm5PVRbd-9">
          <mxGeometry relative="1" as="geometry" />
        </mxCell>
        <mxCell id="9LHKJstA_5zomm5PVRbd-8" value="2010" style="ellipse;whiteSpace=wrap;html=1;aspect=fixed;" vertex="1" parent="1">
          <mxGeometry x="220" y="365" width="80" height="80" as="geometry" />
        </mxCell>
        <mxCell id="9LHKJstA_5zomm5PVRbd-9" value="Adanya aktivitas penambangan. Ini sering kali menyebabkan erosi tanah, degradasi lingkungan, dan meningkatkan risiko tanah longsor." style="whiteSpace=wrap;html=1;" vertex="1" parent="1">
          <mxGeometry x="385" y="360" width="190" height="90" as="geometry" />
        </mxCell>
        <mxCell id="9LHKJstA_5zomm5PVRbd-13" value="" style="edgeStyle=orthogonalEdgeStyle;rounded=0;orthogonalLoop=1;jettySize=auto;html=1;" edge="1" parent="1" source="9LHKJstA_5zomm5PVRbd-11" target="9LHKJstA_5zomm5PVRbd-12">
          <mxGeometry relative="1" as="geometry" />
        </mxCell>
        <mxCell id="9LHKJstA_5zomm5PVRbd-11" value="2017" style="ellipse;whiteSpace=wrap;html=1;aspect=fixed;" vertex="1" parent="1">
          <mxGeometry x="220" y="471" width="80" height="80" as="geometry" />
        </mxCell>
        <mxCell id="9LHKJstA_5zomm5PVRbd-12" value="Tanah longsor di daerah yang mengalami deforestasi" style="whiteSpace=wrap;html=1;" vertex="1" parent="1">
          <mxGeometry x="420" y="480" width="120" height="60" as="geometry" />
        </mxCell>
        <mxCell id="9LHKJstA_5zomm5PVRbd-14" value="2020" style="ellipse;whiteSpace=wrap;html=1;aspect=fixed;" vertex="1" parent="1">
          <mxGeometry x="220" y="580" width="80" height="80" as="geometry" />
        </mxCell>
        <mxCell id="9LHKJstA_5zomm5PVRbd-15" value="" style="endArrow=classic;html=1;rounded=0;" edge="1" parent="1" source="9LHKJstA_5zomm5PVRbd-14" target="9LHKJstA_5zomm5PVRbd-12">
          <mxGeometry width="50" height="50" relative="1" as="geometry">
            <mxPoint x="320" y="380" as="sourcePoint" />
            <mxPoint x="370" y="330" as="targetPoint" />
          </mxGeometry>
        </mxCell>
      </root>
    </mxGraphModel>
  </diagram>
</mxfile>
